<?xml version="1.0" encoding="UTF-8"?>
<svg id="Layer_2" data-name="Layer 2" xmlns="http://www.w3.org/2000/svg" xmlns:xlink="http://www.w3.org/1999/xlink" viewBox="0 0 799.05 543.78">
  <defs>
    <style>
      .cls-1 {
        stroke: #231f20;
      }

      .cls-1, .cls-2, .cls-3, .cls-4 {
        fill: none;
        stroke-miterlimit: 10;
      }

      .cls-5 {
        fill: #a7d59c;
      }

      .cls-6 {
        fill: url(#radial-gradient);
      }

      .cls-7 {
        font-size: 12.44px;
      }

      .cls-7, .cls-8, .cls-9 {
        font-family: ArialMT, Arial;
      }

      .cls-7, .cls-8, .cls-10 {
        fill: #5a6458;
      }

      .cls-8, .cls-9 {
        font-size: 14.21px;
      }

      .cls-9 {
        fill: #231f20;
      }

      .cls-2 {
        stroke: #7b7b7b;
        stroke-width: .5px;
      }

      .cls-11 {
        fill: #b0b0b0;
      }

      .cls-10 {
        font-family: Arial-BoldMT, Arial;
        font-size: 17.77px;
        font-weight: 700;
      }

      .cls-12 {
        fill: #fff;
      }

      .cls-3 {
        stroke: #4a494a;
      }

      .cls-13 {
        fill: #848484;
      }

      .cls-14 {
        letter-spacing: -.07em;
      }

      .cls-15 {
        letter-spacing: -.02em;
      }

      .cls-16 {
        letter-spacing: -.04em;
      }

      .cls-4 {
        stroke: #5e5f5f;
      }
    </style>
    <radialGradient id="radial-gradient" cx="775.76" cy="519.6" fx="775.76" fy="519.6" r="659.57" gradientUnits="userSpaceOnUse">
      <stop offset="0" stop-color="#80c453"/>
      <stop offset=".27" stop-color="#72a054"/>
      <stop offset=".58" stop-color="#647f56"/>
      <stop offset=".83" stop-color="#5c6b57"/>
      <stop offset="1" stop-color="#5a6458"/>
    </radialGradient>
  </defs>
  <g id="Layer_1-2" data-name="Layer 1">
    <rect class="cls-6" y="52.06" width="799.05" height="491.72" rx="12" ry="12"/>
    <rect class="cls-12" x="45.29" y="107.03" width="708.48" height="415.57"/>
    <rect class="cls-5" x="65.12" y="452.52" width="671.12" height="46.86"/>
    <rect class="cls-1" x="68.39" y="128.36" width="77.99" height="88.24"/>
    <path class="cls-1" d="M130.33,169.04c0,6.63-2.81,12.6-7.31,16.79-4.1,3.82-9.59,6.15-15.63,6.15s-11.54-2.33-15.63-6.15c-4.49-4.19-7.31-10.16-7.31-16.79,0-12.67,10.27-22.94,22.94-22.94s22.94,10.27,22.94,22.94Z"/>
    <path class="cls-1" d="M91.76,185.82c-4.5,4.19-7.31,10.16-7.31,16.79v13.99"/>
    <path class="cls-1" d="M130.33,216.6v-13.99c0-6.63-2.81-12.6-7.31-16.79"/>
    <text class="cls-10" transform="translate(271.78 144.12)"><tspan x="0" y="0">Side Effects Include - Medical Department</tspan></text>
    <text class="cls-8" transform="translate(159.83 171.19)"><tspan x="0" y="0">Subject Name:</tspan></text>
    <text class="cls-8" transform="translate(67.68 280.94)"><tspan x="0" y="0">Symptoms:</tspan></text>
    <text class="cls-9" transform="translate(70.94 472.24)"><tspan x="0" y="0">Additional Notes:</tspan></text>
    <text class="cls-7" transform="translate(72.36 300.4)"><tspan x="0" y="0">Head Injur</tspan><tspan class="cls-14" x="57.38" y="0">y</tspan><tspan x="62.68" y="0">,</tspan></text>
    <text class="cls-8" transform="translate(160.48 202.7)"><tspan x="0" y="0">Address:</tspan></text>
    <text class="cls-8" transform="translate(161.14 231.64)"><tspan x="0" y="0">Medical Proxy: Side E</tspan><tspan class="cls-15" x="139.04" y="0">f</tspan><tspan x="142.73" y="0" xml:space="preserve">fects Include -  Human Resources</tspan></text>
    <text class="cls-8" transform="translate(544.55 171.19)"><tspan x="0" y="0">Age:</tspan></text>
    <rect class="cls-1" x="63.86" y="266.4" width="671.12" height="55.08"/>
    <text class="cls-8" transform="translate(67.68 403.39)"><tspan class="cls-16" x="0" y="0">T</tspan><tspan x="8.16" y="0">reatment:</tspan></text>
    <rect class="cls-1" x="63.86" y="388.85" width="671.12" height="55.08"/>
    <text class="cls-8" transform="translate(67.68 342.17)"><tspan x="0" y="0">Diagnosis:</tspan></text>
    <rect class="cls-1" x="63.86" y="327.63" width="671.12" height="55.08"/>
  </g>
  <g id="Layer_2-2" data-name="Layer 2">
    <g>
      <path class="cls-3" d="M303.81,70.59c-2.54-2.25-2.54-5.91,0-8.18,2.56-2.25,6.68-2.25,9.23,0,2.56,2.27,2.56,5.92,0,8.18-2.54,2.27-6.67,2.27-9.23,0Z"/>
      <path class="cls-3" d="M383.53,27.08c0-8.95,8.18-16.21,18.29-16.21s18.28,7.26,18.28,16.21-8.18,16.21-18.28,16.21-18.29-7.26-18.29-16.21Z"/>
      <path class="cls-3" d="M488.63,64.51c1.24-3,4.99-4.53,8.37-3.43,3.38,1.1,5.11,4.43,3.87,7.43-1.25,3-5,4.53-8.38,3.42-3.38-1.1-5.11-4.42-3.86-7.42Z"/>
      <g>
        <path class="cls-11" d="M519.19,87.8c-7.03-.71-14.59,0-21.66,0h-39.39l-.89-11.83h54.26s8.91-7.88-7.11-17.35c-15.94-9.42-59.21-19.62-59.61-19.69-3.12-.75-8.37-5.01-10.64-6.98-4.47-3.92-7.03-9.2-9.13-14.36-1.09-2.69-2.03-5.44-3.11-8.16-1.47-3.7-2.01-6.93-6.76-8.38-1.37-.41-2.78-.61-4.21-.71-1.21-.09-2.41-.1-3.61-.13-4.53-.1-9.06-.32-13.59-.13-2.36.1-4.81.33-6.81,1.44-5.31,2.93-5.86,9.84-7.71,14.55-2.22,5.67-4.82,11.59-9.75,15.89-2.27,1.97-7.51,6.23-10.64,6.98-.38.08-43.66,10.28-59.6,19.69-16.02,9.47-7.12,17.35-7.12,17.35h54.28l-.89,11.83h-39.41c-7.07,0-14.63-.71-21.64,0-10.35,1-20.68,13.27-25.87,20.73h286.46c-5.2-7.46-15.5-19.73-25.85-20.73ZM488.63,64.51c1.25-2.99,4.99-4.53,8.37-3.43,3.39,1.1,5.11,4.44,3.87,7.43-1.25,3-5,4.54-8.38,3.42-3.39-1.09-5.11-4.42-3.86-7.42ZM313.03,70.59c-2.54,2.26-6.67,2.26-9.23,0-2.54-2.25-2.54-5.91,0-8.18,2.56-2.25,6.69-2.25,9.23,0,2.55,2.27,2.55,5.93,0,8.18ZM401.82,43.29c-10.11,0-18.29-7.26-18.29-16.21s8.18-16.22,18.29-16.22,18.27,7.26,18.27,16.22-8.17,16.21-18.27,16.21Z"/>
        <path class="cls-13" d="M551.55,122.49H252.07c-.52,0,6.02-13.25,6.51-13.95h286.46c.49.71,7.03,13.95,6.5,13.95Z"/>
      </g>
      <path class="cls-2" d="M420.1,27.08c0,8.95-8.18,16.21-18.28,16.21s-18.29-7.26-18.29-16.21,8.18-16.21,18.29-16.21,18.28,7.26,18.28,16.21Z"/>
      <path class="cls-2" d="M313.03,70.59c-2.54,2.27-6.67,2.27-9.23,0-2.54-2.25-2.54-5.91,0-8.18,2.56-2.25,6.68-2.25,9.23,0,2.56,2.27,2.56,5.92,0,8.18Z"/>
      <path class="cls-2" d="M500.87,68.51c-1.25,3-5,4.53-8.38,3.42-3.38-1.1-5.11-4.42-3.86-7.42,1.24-3,4.99-4.53,8.37-3.43,3.38,1.1,5.11,4.43,3.87,7.43Z"/>
      <path class="cls-4" d="M252.07,122.48h299.48"/>
      <path class="cls-2" d="M258.58,108.54h286.46"/>
    </g>
  </g>
</svg>